G04 EAGLE Gerber X2 export*
%TF.Part,Single*%
%TF.FileFunction,Profile,NP*%
%TF.FilePolarity,Positive*%
%TF.GenerationSoftware,Autodesk,EAGLE,8.6.3*%
%TF.CreationDate,2018-04-05T19:26:23Z*%
G75*
%MOMM*%
%FSLAX34Y34*%
%LPD*%
%AMOC8*
5,1,8,0,0,1.08239X$1,22.5*%
G01*
%ADD10C,0.254000*%


D10*
X-127000Y419100D02*
X355400Y419100D01*
X355400Y682500D01*
X-127000Y682500D01*
X-127000Y419100D01*
X-59700Y469360D02*
X-59771Y468282D01*
X-59912Y467211D01*
X-60122Y466151D01*
X-60402Y465108D01*
X-60749Y464085D01*
X-61163Y463087D01*
X-61641Y462118D01*
X-62181Y461182D01*
X-62781Y460284D01*
X-63439Y459427D01*
X-64151Y458615D01*
X-64915Y457851D01*
X-65727Y457139D01*
X-66584Y456481D01*
X-67482Y455881D01*
X-68418Y455341D01*
X-69387Y454863D01*
X-70385Y454449D01*
X-71408Y454102D01*
X-72451Y453822D01*
X-73511Y453612D01*
X-74582Y453471D01*
X-75660Y453400D01*
X-76740Y453400D01*
X-77818Y453471D01*
X-78889Y453612D01*
X-79949Y453822D01*
X-80992Y454102D01*
X-82015Y454449D01*
X-83013Y454863D01*
X-83982Y455341D01*
X-84918Y455881D01*
X-85816Y456481D01*
X-86673Y457139D01*
X-87485Y457851D01*
X-88249Y458615D01*
X-88962Y459427D01*
X-89619Y460284D01*
X-90219Y461182D01*
X-90760Y462118D01*
X-91237Y463087D01*
X-91651Y464085D01*
X-91998Y465108D01*
X-92278Y466151D01*
X-92488Y467211D01*
X-92629Y468282D01*
X-92700Y469360D01*
X-92700Y470440D01*
X-92629Y471518D01*
X-92488Y472589D01*
X-92278Y473649D01*
X-91998Y474692D01*
X-91651Y475715D01*
X-91237Y476713D01*
X-90760Y477682D01*
X-90219Y478618D01*
X-89619Y479516D01*
X-88962Y480373D01*
X-88249Y481185D01*
X-87485Y481949D01*
X-86673Y482662D01*
X-85816Y483319D01*
X-84918Y483919D01*
X-83982Y484460D01*
X-83013Y484937D01*
X-82015Y485351D01*
X-80992Y485698D01*
X-79949Y485978D01*
X-78889Y486188D01*
X-77818Y486329D01*
X-76740Y486400D01*
X-75660Y486400D01*
X-74582Y486329D01*
X-73511Y486188D01*
X-72451Y485978D01*
X-71408Y485698D01*
X-70385Y485351D01*
X-69387Y484937D01*
X-68418Y484460D01*
X-67482Y483919D01*
X-66584Y483319D01*
X-65727Y482662D01*
X-64915Y481949D01*
X-64151Y481185D01*
X-63439Y480373D01*
X-62781Y479516D01*
X-62181Y478618D01*
X-61641Y477682D01*
X-61163Y476713D01*
X-60749Y475715D01*
X-60402Y474692D01*
X-60122Y473649D01*
X-59912Y472589D01*
X-59771Y471518D01*
X-59700Y470440D01*
X-59700Y469360D01*
X321300Y469360D02*
X321229Y468282D01*
X321088Y467211D01*
X320878Y466151D01*
X320598Y465108D01*
X320251Y464085D01*
X319837Y463087D01*
X319360Y462118D01*
X318819Y461182D01*
X318219Y460284D01*
X317562Y459427D01*
X316849Y458615D01*
X316085Y457851D01*
X315273Y457139D01*
X314416Y456481D01*
X313518Y455881D01*
X312582Y455341D01*
X311613Y454863D01*
X310615Y454449D01*
X309592Y454102D01*
X308549Y453822D01*
X307489Y453612D01*
X306418Y453471D01*
X305340Y453400D01*
X304260Y453400D01*
X303182Y453471D01*
X302111Y453612D01*
X301051Y453822D01*
X300008Y454102D01*
X298985Y454449D01*
X297987Y454863D01*
X297018Y455341D01*
X296082Y455881D01*
X295184Y456481D01*
X294327Y457139D01*
X293515Y457851D01*
X292751Y458615D01*
X292039Y459427D01*
X291381Y460284D01*
X290781Y461182D01*
X290241Y462118D01*
X289763Y463087D01*
X289349Y464085D01*
X289002Y465108D01*
X288722Y466151D01*
X288512Y467211D01*
X288371Y468282D01*
X288300Y469360D01*
X288300Y470440D01*
X288371Y471518D01*
X288512Y472589D01*
X288722Y473649D01*
X289002Y474692D01*
X289349Y475715D01*
X289763Y476713D01*
X290241Y477682D01*
X290781Y478618D01*
X291381Y479516D01*
X292039Y480373D01*
X292751Y481185D01*
X293515Y481949D01*
X294327Y482662D01*
X295184Y483319D01*
X296082Y483919D01*
X297018Y484460D01*
X297987Y484937D01*
X298985Y485351D01*
X300008Y485698D01*
X301051Y485978D01*
X302111Y486188D01*
X303182Y486329D01*
X304260Y486400D01*
X305340Y486400D01*
X306418Y486329D01*
X307489Y486188D01*
X308549Y485978D01*
X309592Y485698D01*
X310615Y485351D01*
X311613Y484937D01*
X312582Y484460D01*
X313518Y483919D01*
X314416Y483319D01*
X315273Y482662D01*
X316085Y481949D01*
X316849Y481185D01*
X317562Y480373D01*
X318219Y479516D01*
X318819Y478618D01*
X319360Y477682D01*
X319837Y476713D01*
X320251Y475715D01*
X320598Y474692D01*
X320878Y473649D01*
X321088Y472589D01*
X321229Y471518D01*
X321300Y470440D01*
X321300Y469360D01*
M02*
