G04 EAGLE Gerber X2 export*
%TF.Part,Single*%
%TF.FileFunction,Profile,NP*%
%TF.FilePolarity,Positive*%
%TF.GenerationSoftware,Autodesk,EAGLE,8.6.3*%
%TF.CreationDate,2018-04-07T04:52:57Z*%
G75*
%MOMM*%
%FSLAX34Y34*%
%LPD*%
%AMOC8*
5,1,8,0,0,1.08239X$1,22.5*%
G01*
%ADD10C,0.254000*%


D10*
X-99500Y450000D02*
X-99382Y447307D01*
X-99031Y444634D01*
X-98447Y442003D01*
X-97637Y439432D01*
X-96605Y436941D01*
X-95360Y434550D01*
X-93912Y432277D01*
X-92271Y430138D01*
X-90450Y428150D01*
X-88462Y426329D01*
X-86324Y424688D01*
X-84050Y423240D01*
X-81659Y421995D01*
X-79168Y420964D01*
X-76598Y420153D01*
X-73966Y419569D01*
X-71293Y419218D01*
X-68600Y419100D01*
X264130Y419100D01*
X267291Y419238D01*
X270428Y419651D01*
X273518Y420336D01*
X276535Y421287D01*
X279459Y422498D01*
X282265Y423959D01*
X284934Y425659D01*
X287444Y427586D01*
X289777Y429723D01*
X291915Y432056D01*
X293841Y434566D01*
X295541Y437235D01*
X297002Y440041D01*
X298213Y442965D01*
X299164Y445982D01*
X299849Y449072D01*
X300262Y452209D01*
X300400Y455370D01*
X300400Y551976D01*
X299941Y562481D01*
X298569Y572905D01*
X296293Y583170D01*
X293132Y593198D01*
X289108Y602912D01*
X284253Y612238D01*
X278604Y621106D01*
X272203Y629448D01*
X265099Y637199D01*
X257348Y644303D01*
X249006Y650704D01*
X240138Y656353D01*
X230812Y661208D01*
X221098Y665232D01*
X211070Y668393D01*
X200805Y670669D01*
X190381Y672041D01*
X179876Y672500D01*
X19696Y672500D01*
X9308Y672046D01*
X-1002Y670689D01*
X-11154Y668438D01*
X-21071Y665312D01*
X-30678Y661332D01*
X-39902Y656531D01*
X-48672Y650944D01*
X-56922Y644613D01*
X-64588Y637588D01*
X-71613Y629922D01*
X-77944Y621672D01*
X-83531Y612902D01*
X-88332Y603678D01*
X-92312Y594071D01*
X-95438Y584154D01*
X-97689Y574002D01*
X-99046Y563692D01*
X-99500Y553304D01*
X-99500Y450000D01*
X-33500Y499460D02*
X-33571Y498382D01*
X-33712Y497311D01*
X-33922Y496251D01*
X-34202Y495208D01*
X-34549Y494185D01*
X-34963Y493187D01*
X-35441Y492218D01*
X-35981Y491282D01*
X-36581Y490384D01*
X-37239Y489527D01*
X-37951Y488715D01*
X-38715Y487951D01*
X-39527Y487239D01*
X-40384Y486581D01*
X-41282Y485981D01*
X-42218Y485441D01*
X-43187Y484963D01*
X-44185Y484549D01*
X-45208Y484202D01*
X-46251Y483922D01*
X-47311Y483712D01*
X-48382Y483571D01*
X-49460Y483500D01*
X-50540Y483500D01*
X-51618Y483571D01*
X-52689Y483712D01*
X-53749Y483922D01*
X-54792Y484202D01*
X-55815Y484549D01*
X-56813Y484963D01*
X-57782Y485441D01*
X-58718Y485981D01*
X-59616Y486581D01*
X-60473Y487239D01*
X-61285Y487951D01*
X-62049Y488715D01*
X-62762Y489527D01*
X-63419Y490384D01*
X-64019Y491282D01*
X-64560Y492218D01*
X-65037Y493187D01*
X-65451Y494185D01*
X-65798Y495208D01*
X-66078Y496251D01*
X-66288Y497311D01*
X-66429Y498382D01*
X-66500Y499460D01*
X-66500Y500540D01*
X-66429Y501618D01*
X-66288Y502689D01*
X-66078Y503749D01*
X-65798Y504792D01*
X-65451Y505815D01*
X-65037Y506813D01*
X-64560Y507782D01*
X-64019Y508718D01*
X-63419Y509616D01*
X-62762Y510473D01*
X-62049Y511285D01*
X-61285Y512049D01*
X-60473Y512762D01*
X-59616Y513419D01*
X-58718Y514019D01*
X-57782Y514560D01*
X-56813Y515037D01*
X-55815Y515451D01*
X-54792Y515798D01*
X-53749Y516078D01*
X-52689Y516288D01*
X-51618Y516429D01*
X-50540Y516500D01*
X-49460Y516500D01*
X-48382Y516429D01*
X-47311Y516288D01*
X-46251Y516078D01*
X-45208Y515798D01*
X-44185Y515451D01*
X-43187Y515037D01*
X-42218Y514560D01*
X-41282Y514019D01*
X-40384Y513419D01*
X-39527Y512762D01*
X-38715Y512049D01*
X-37951Y511285D01*
X-37239Y510473D01*
X-36581Y509616D01*
X-35981Y508718D01*
X-35441Y507782D01*
X-34963Y506813D01*
X-34549Y505815D01*
X-34202Y504792D01*
X-33922Y503749D01*
X-33712Y502689D01*
X-33571Y501618D01*
X-33500Y500540D01*
X-33500Y499460D01*
X266300Y499360D02*
X266229Y498282D01*
X266088Y497211D01*
X265878Y496151D01*
X265598Y495108D01*
X265251Y494085D01*
X264837Y493087D01*
X264360Y492118D01*
X263819Y491182D01*
X263219Y490284D01*
X262562Y489427D01*
X261849Y488615D01*
X261085Y487851D01*
X260273Y487139D01*
X259416Y486481D01*
X258518Y485881D01*
X257582Y485341D01*
X256613Y484863D01*
X255615Y484449D01*
X254592Y484102D01*
X253549Y483822D01*
X252489Y483612D01*
X251418Y483471D01*
X250340Y483400D01*
X249260Y483400D01*
X248182Y483471D01*
X247111Y483612D01*
X246051Y483822D01*
X245008Y484102D01*
X243985Y484449D01*
X242987Y484863D01*
X242018Y485341D01*
X241082Y485881D01*
X240184Y486481D01*
X239327Y487139D01*
X238515Y487851D01*
X237751Y488615D01*
X237039Y489427D01*
X236381Y490284D01*
X235781Y491182D01*
X235241Y492118D01*
X234763Y493087D01*
X234349Y494085D01*
X234002Y495108D01*
X233722Y496151D01*
X233512Y497211D01*
X233371Y498282D01*
X233300Y499360D01*
X233300Y500440D01*
X233371Y501518D01*
X233512Y502589D01*
X233722Y503649D01*
X234002Y504692D01*
X234349Y505715D01*
X234763Y506713D01*
X235241Y507682D01*
X235781Y508618D01*
X236381Y509516D01*
X237039Y510373D01*
X237751Y511185D01*
X238515Y511949D01*
X239327Y512662D01*
X240184Y513319D01*
X241082Y513919D01*
X242018Y514460D01*
X242987Y514937D01*
X243985Y515351D01*
X245008Y515698D01*
X246051Y515978D01*
X247111Y516188D01*
X248182Y516329D01*
X249260Y516400D01*
X250340Y516400D01*
X251418Y516329D01*
X252489Y516188D01*
X253549Y515978D01*
X254592Y515698D01*
X255615Y515351D01*
X256613Y514937D01*
X257582Y514460D01*
X258518Y513919D01*
X259416Y513319D01*
X260273Y512662D01*
X261085Y511949D01*
X261849Y511185D01*
X262562Y510373D01*
X263219Y509516D01*
X263819Y508618D01*
X264360Y507682D01*
X264837Y506713D01*
X265251Y505715D01*
X265598Y504692D01*
X265878Y503649D01*
X266088Y502589D01*
X266229Y501518D01*
X266300Y500440D01*
X266300Y499360D01*
M02*
